<?xml version="1.0" encoding="UTF-8" standalone="no"?>
<svg
   xmlns:dc="http://purl.org/dc/elements/1.1/"
   xmlns:cc="http://creativecommons.org/ns#"
   xmlns:rdf="http://www.w3.org/1999/02/22-rdf-syntax-ns#"
   xmlns:svg="http://www.w3.org/2000/svg"
   xmlns="http://www.w3.org/2000/svg"
   xmlns:sodipodi="http://sodipodi.sourceforge.net/DTD/sodipodi-0.dtd"
   xmlns:inkscape="http://www.inkscape.org/namespaces/inkscape"
   viewBox="0 0 16 16"
   version="1.1"
   id="svg4"
   sodipodi:docname="calendar-icon.svg"
   width="16"
   height="16"
   inkscape:version="1.0.2-2 (e86c870879, 2021-01-15)">
  <metadata
     id="metadata10">
    <rdf:RDF>
      <cc:Work
         rdf:about="">
        <dc:format>image/svg+xml</dc:format>
        <dc:type
           rdf:resource="http://purl.org/dc/dcmitype/StillImage" />
        <dc:title></dc:title>
      </cc:Work>
    </rdf:RDF>
  </metadata>
  <defs
     id="defs8" />
  <sodipodi:namedview
     pagecolor="#ffffff"
     bordercolor="#666666"
     borderopacity="1"
     objecttolerance="10"
     gridtolerance="10"
     guidetolerance="10"
     inkscape:pageopacity="0"
     inkscape:pageshadow="2"
     inkscape:window-width="1620"
     inkscape:window-height="1017"
     id="namedview6"
     showgrid="false"
     inkscape:zoom="11.484375"
     inkscape:cx="32.579301"
     inkscape:cy="4.2513874"
     inkscape:window-x="-8"
     inkscape:window-y="32"
     inkscape:window-maximized="1"
     inkscape:current-layer="svg4" />
  <path
     d="M 13.5,2 H 12 V 0.375 C 12,0.16790625 11.832094,0 11.625,0 h -1.25 C 10.167906,0 10,0.16790625 10,0.375 V 2 H 6 V 0.375 C 6,0.16790625 5.8320937,0 5.625,0 H 4.375 C 4.1679063,0 4,0.16790625 4,0.375 V 2 H 2.5 C 1.6715625,2 1,2.6715625 1,3.5 v 11 C 1,15.328438 1.6715625,16 2.5,16 h 11 C 14.328438,16 15,15.328438 15,14.5 V 3.5 C 15,2.6715625 14.328438,2 13.5,2 Z M 13.3125,14.5 H 2.6875 A 0.1875,0.1875 0 0 1 2.5,14.3125 V 5 h 11 v 9.3125 A 0.1875,0.1875 0 0 1 13.3125,14.5 Z M 11.660969,8.2296875 7.2138125,12.641219 c -0.1470313,0.145843 -0.3844687,0.144906 -0.5303438,-0.0021 L 4.336875,10.2735 C 4.1910313,10.126469 4.1919688,9.8890313 4.339,9.7431563 l 0.7099687,-0.70425 C 5.196,8.8930625 5.4334375,8.894 5.5792812,9.0410625 L 6.9575313,10.430469 10.428531,6.9873125 c 0.147032,-0.1458437 0.384469,-0.1449062 0.530344,0.00213 l 0.70425,0.7099375 c 0.145844,0.1470313 0.144875,0.3844688 -0.0022,0.5303125 z"
     id="path2"
     style="stroke-width:0.03125" />
</svg>
